<?xml version="1.0" encoding="utf-8"?><svg viewBox="0 0 24 24" xmlns="http://www.w3.org/2000/svg" xmlns:xlink="http://www.w3.org/1999/xlink"><style>:root>svg{display:none}:root>svg:target{display:block}</style><svg viewBox="0 0 16 24" id="arrow" xmlns="http://www.w3.org/2000/svg"><path d="M16 16l-1.41-1.41L9 20.17V0H7v20.17l-5.58-5.59L0 16l8 8 8-8z" fill="#fff"/></svg><svg viewBox="0 0 16 24" id="arrow_fill" xmlns="http://www.w3.org/2000/svg"><path d="M16 16l-1.41-1.41L9 20.17V0H7v20.17l-5.58-5.59L0 16l8 8 8-8z" fill="#FBD784"/></svg><svg fill="#FBD784" viewBox="0 0 24 16" id="arrow_yellow" xmlns="http://www.w3.org/2000/svg"><path d="M16 0l-1.41 1.41L20.17 7H0v2h20.17l-5.59 5.58L16 16l8-8-8-8z"/></svg><svg fill="#c1843b" viewBox="0 0 24 16" id="arrow_yellow_fill" xmlns="http://www.w3.org/2000/svg"><path d="M16 0l-1.41 1.41L20.17 7H0v2h20.17l-5.59 5.58L16 16l8-8-8-8z"/></svg><svg fill="#fff" viewBox="0 0 24 24" id="person" xmlns="http://www.w3.org/2000/svg"><path fill-rule="evenodd" clip-rule="evenodd" d="M12 2C6.48 2 2 6.48 2 12s4.48 10 10 10 10-4.48 10-10S17.52 2 12 2zM7.07 18.28c.43-.9 3.05-1.78 4.93-1.78s4.51.88 4.93 1.78A7.893 7.893 0 0112 20c-1.86 0-3.57-.64-4.93-1.72zm11.29-1.45c-1.43-1.74-4.9-2.33-6.36-2.33s-4.93.59-6.36 2.33A7.95 7.95 0 014 12c0-4.41 3.59-8 8-8s8 3.59 8 8c0 1.82-.62 3.49-1.64 4.83zM12 6c-1.94 0-3.5 1.56-3.5 3.5S10.06 13 12 13s3.5-1.56 3.5-3.5S13.94 6 12 6zm0 5c-.83 0-1.5-.67-1.5-1.5S11.17 8 12 8s1.5.67 1.5 1.5S12.83 11 12 11z"/><mask id="ea" style="mask-type:alpha" maskUnits="userSpaceOnUse" x="2" y="2" width="20" height="20"><path fill-rule="evenodd" clip-rule="evenodd" d="M12 2C6.48 2 2 6.48 2 12s4.48 10 10 10 10-4.48 10-10S17.52 2 12 2zM7.07 18.28c.43-.9 3.05-1.78 4.93-1.78s4.51.88 4.93 1.78A7.893 7.893 0 0112 20c-1.86 0-3.57-.64-4.93-1.72zm11.29-1.45c-1.43-1.74-4.9-2.33-6.36-2.33s-4.93.59-6.36 2.33A7.95 7.95 0 014 12c0-4.41 3.59-8 8-8s8 3.59 8 8c0 1.82-.62 3.49-1.64 4.83zM12 6c-1.94 0-3.5 1.56-3.5 3.5S10.06 13 12 13s3.5-1.56 3.5-3.5S13.94 6 12 6zm0 5c-.83 0-1.5-.67-1.5-1.5S11.17 8 12 8s1.5.67 1.5 1.5S12.83 11 12 11z"/></mask></svg></svg>